/* XPM */
static char *_619081070880[] = {
/* columns rows colors chars-per-pixel */
"64 64 10 1 ",
"  c black",
". c #4D3822",
"X c #C40101",
"o c #FF0D0D",
"O c #815D38",
"+ c #976C42",
"@ c #B58657",
"# c #E3D2BF",
"$ c white",
"% c #123456",
/* pixels */
"%%%%%%%%%%%%%%              %%%%%%%%%%%%%%%%%%%%%%%%%%%%%%%%%%%%",
"%%%%%%%%%%%%%%              %%%%%%%%%%%%%%%%%%%%%%%%%%%%%%%%%%%%",
"%%%%%%%%%%%%%%              %%%%%%%%%%%%%%%%%%%%%%%%%%%%%%%%%%%%",
"%%%%%%%%%%%%%%              %%%%%%%%%%%%%%%%%%%%%%%%%%%%%%%%%%%%",
"%%%%%%%%%%%%%%              %%%%%%%%%%%%%%%%%%%%%%%%%%%%%%%%%%%%",
"%%%%%%%%%%%%%%              %%%%%%%%%%%%%%%%%%%%%%%%%%%%%%%%%%%%",
"%%%%%%%%%%%%%%              %%%%%%%%%%%%%%%%%%%%%%%%%%%%%%%%%%%%",
"%%%%%%%       oooooooXXXXXXX        %%%%%%%%%%%%%%%%%%%%%%%%%%%%",
"%%%%%%%       oooooooXXXXXXX        %%%%%%%%%%%%%%%%%%%%%%%%%%%%",
"%%%%%%%       oooooooXXXXXXX        %%%%%%%%%%%%%%%%%%%%%%%%%%%%",
"%%%%%%%       oooooooXXXXXXX        %%%%%%%%%%%%%%%%%%%%%%%%%%%%",
"%%%%%%%       oooooooXXXXXXX        %%%%%%%%%%%%%%%%%%%%%%%%%%%%",
"%%%%%%%       oooooooXXXXXXX        %%%%%%%%%%%%%%%%%%%%%%%%%%%%",
"%%%%%%%       oooooooXXXXXXX        %%%%%%%%%%%%%%%%%%%%%%%%%%%%",
"       ooooooo$$$$$$$ooooooo@@@@@@@@       %%%%%%%%%%%%%%%%%%%%%",
"       ooooooo$$$$$$$ooooooo@@@@@@@@       %%%%%%%%%%%%%%%%%%%%%",
"       ooooooo$$$$$$$ooooooo@@@@@@@@       %%%%%%%%%%%%%%%%%%%%%",
"       ooooooo$$$$$$$ooooooo@@@@@@@@       %%%%%%%%%%%%%%%%%%%%%",
"       ooooooo$$$$$$$ooooooo@@@@@@@@       %%%%%%%%%%%%%%%%%%%%%",
"       ooooooo$$$$$$$ooooooo@@@@@@@@       %%%%%%%%%%%%%%%%%%%%%",
"       ooooooo$$$$$$$ooooooo@@@@@@@@       %%%%%%%%%%%%%%%%%%%%%",
"       XXXXXXXooooooo@@@@@@@++++++++@@@@@@@       %%%%%%%%%%%%%%",
"       XXXXXXXooooooo@@@@@@@++++++++@@@@@@@       %%%%%%%%%%%%%%",
"       XXXXXXXooooooo@@@@@@@++++++++@@@@@@@       %%%%%%%%%%%%%%",
"       XXXXXXXooooooo@@@@@@@++++++++@@@@@@@       %%%%%%%%%%%%%%",
"       XXXXXXXooooooo@@@@@@@++++++++@@@@@@@       %%%%%%%%%%%%%%",
"       XXXXXXXooooooo@@@@@@@++++++++@@@@@@@       %%%%%%%%%%%%%%",
"       XXXXXXXooooooo@@@@@@@++++++++@@@@@@@       %%%%%%%%%%%%%%",
"%%%%%%%       .......OOOOOOO+++++++++++++++       %%%%%%%%%%%%%%",
"%%%%%%%       .......OOOOOOO+++++++++++++++       %%%%%%%%%%%%%%",
"%%%%%%%       .......OOOOOOO+++++++++++++++       %%%%%%%%%%%%%%",
"%%%%%%%       .......OOOOOOO+++++++++++++++       %%%%%%%%%%%%%%",
"%%%%%%%       .......OOOOOOO+++++++++++++++       %%%%%%%%%%%%%%",
"%%%%%%%       .......OOOOOOO+++++++++++++++       %%%%%%%%%%%%%%",
"%%%%%%%       .......OOOOOOO+++++++++++++++       %%%%%%%%%%%%%%",
"%%%%%%%       .......OOOOOOO+++++++++++++++       %%%%%%%%%%%%%%",
"%%%%%%%%%%%%%%       .......OOOOOOOOOOOOOOO       %%%%%%%%%%%%%%",
"%%%%%%%%%%%%%%       .......OOOOOOOOOOOOOOO       %%%%%%%%%%%%%%",
"%%%%%%%%%%%%%%       .......OOOOOOOOOOOOOOO       %%%%%%%%%%%%%%",
"%%%%%%%%%%%%%%       .......OOOOOOOOOOOOOOO       %%%%%%%%%%%%%%",
"%%%%%%%%%%%%%%       .......OOOOOOOOOOOOOOO       %%%%%%%%%%%%%%",
"%%%%%%%%%%%%%%       .......OOOOOOOOOOOOOOO       %%%%%%%%%%%%%%",
"%%%%%%%%%%%%%%       .......OOOOOOOOOOOOOOO       %%%%%%%%%%%%%%",
"%%%%%%%%%%%%%%%%%%%%%                      #######              ",
"%%%%%%%%%%%%%%%%%%%%%                      #######              ",
"%%%%%%%%%%%%%%%%%%%%%                      #######              ",
"%%%%%%%%%%%%%%%%%%%%%                      #######              ",
"%%%%%%%%%%%%%%%%%%%%%                      #######              ",
"%%%%%%%%%%%%%%%%%%%%%                      #######              ",
"%%%%%%%%%%%%%%%%%%%%%                      #######              ",
"%%%%%%%%%%%%%%%%%%%%%%%%%%%%%%%%%%%%%%%%%%%       #######       ",
"%%%%%%%%%%%%%%%%%%%%%%%%%%%%%%%%%%%%%%%%%%%       #######       ",
"%%%%%%%%%%%%%%%%%%%%%%%%%%%%%%%%%%%%%%%%%%%       #######       ",
"%%%%%%%%%%%%%%%%%%%%%%%%%%%%%%%%%%%%%%%%%%%       #######       ",
"%%%%%%%%%%%%%%%%%%%%%%%%%%%%%%%%%%%%%%%%%%%       #######       ",
"%%%%%%%%%%%%%%%%%%%%%%%%%%%%%%%%%%%%%%%%%%%       #######       ",
"%%%%%%%%%%%%%%%%%%%%%%%%%%%%%%%%%%%%%%%%%%%       #######       ",
"%%%%%%%%%%%%%%%%%%%%%%%%%%%%%%%%%%%%%%%%%%%              %%%%%%%",
"%%%%%%%%%%%%%%%%%%%%%%%%%%%%%%%%%%%%%%%%%%%              %%%%%%%",
"%%%%%%%%%%%%%%%%%%%%%%%%%%%%%%%%%%%%%%%%%%%              %%%%%%%",
"%%%%%%%%%%%%%%%%%%%%%%%%%%%%%%%%%%%%%%%%%%%              %%%%%%%",
"%%%%%%%%%%%%%%%%%%%%%%%%%%%%%%%%%%%%%%%%%%%              %%%%%%%",
"%%%%%%%%%%%%%%%%%%%%%%%%%%%%%%%%%%%%%%%%%%%              %%%%%%%",
"%%%%%%%%%%%%%%%%%%%%%%%%%%%%%%%%%%%%%%%%%%%              %%%%%%%"
};
