/* XPM */
static char *_619083111992[] = {
/* columns rows colors chars-per-pixel */
"18 18 10 1 ",
"  c black",
". c #4D3822",
"X c #C40101",
"o c #FF0D0D",
"O c #815D38",
"+ c #976C42",
"@ c #B58657",
"# c #E3D2BF",
"$ c white",
"% c #123456",
/* pixels */
"%%%%    %%%%%%%%%%",
"%%%%    %%%%%%%%%%",
"%%  ooXX  %%%%%%%%",
"%%  ooXX  %%%%%%%%",
"  oo$$oo@@  %%%%%%",
"  oo$$oo@@  %%%%%%",
"  XXoo@@++@@  %%%%",
"  XXoo@@++@@  %%%%",
"%%  ..OO++++  %%%%",
"%%  ..OO++++  %%%%",
"%%%%  ..OOOO  %%%%",
"%%%%  ..OOOO  %%%%",
"%%%%%%      ##    ",
"%%%%%%      ##    ",
"%%%%%%%%%%%%  ##  ",
"%%%%%%%%%%%%  ##  ",
"%%%%%%%%%%%%    %%",
"%%%%%%%%%%%%    %%"
};
