/* XPM */
static char *_620293161979[] = {
/* columns rows colors chars-per-pixel */
"64 64 242 2 ",
"   c #1C1C2C",
".  c #1A1A2C",
"X  c #1D1A32",
"o  c #081D30",
"O  c #221C2D",
"+  c #2B1B2E",
"@  c #26182B",
"#  c #231D33",
"$  c #2B1C34",
"%  c #241D3A",
"&  c #281836",
"*  c #341C37",
"=  c #2C162E",
"-  c #18222A",
";  c #1C2332",
":  c #182535",
">  c #162C35",
",  c #23222D",
"<  c #2A242F",
"1  c #37282D",
"2  c #242334",
"3  c #2A2332",
"4  c #25223B",
"5  c #2E2B39",
"6  c #292936",
"7  c #342434",
"8  c #3C2433",
"9  c #332B35",
"0  c #3B2A35",
"q  c #3C253B",
"w  c #352C3A",
"e  c #3C2B3C",
"r  c #34243B",
"t  c #2A343A",
"y  c #35333C",
"u  c #3B343D",
"i  c #363B3E",
"p  c #3C3A3E",
"a  c #353637",
"s  c #481E39",
"d  c #432535",
"f  c #412A35",
"g  c #44233C",
"h  c #4B243B",
"j  c #422C3C",
"k  c #4B2938",
"l  c #45333E",
"z  c #4E2336",
"x  c #2C453F",
"c  c #37413C",
"v  c #3A2842",
"b  c #283E43",
"n  c #3B3544",
"m  c #3C3B44",
"M  c #3D3C4A",
"N  c #353946",
"B  c #4C1F40",
"V  c #4A2442",
"C  c #432B42",
"Z  c #482942",
"A  c #443545",
"S  c #443A45",
"D  c #493B45",
"F  c #453C4C",
"G  c #4B3D4B",
"H  c #493446",
"J  c #533444",
"K  c #543C4A",
"L  c #443D54",
"P  c #543F52",
"I  c #542841",
"U  c #2B4543",
"Y  c #2D4945",
"T  c #29474A",
"R  c #324443",
"E  c #3C4345",
"W  c #344449",
"Q  c #3B444B",
"!  c #3D4A4C",
"~  c #344A47",
"^  c #3B4552",
"/  c #3A4A52",
"(  c #3E5451",
")  c #37544B",
"_  c #414146",
"`  c #43434B",
"'  c #4B444C",
"]  c #474B4C",
"[  c #52444D",
"{  c #524C4E",
"}  c #444252",
"|  c #4C4355",
" . c #444D52",
".. c #4D4C54",
"X. c #494B5A",
"o. c #544C54",
"O. c #5A4D55",
"+. c #544C59",
"@. c #5A4D5A",
"#. c #564555",
"$. c #4C5555",
"%. c #4A5456",
"&. c #555355",
"*. c #5A5355",
"=. c #5B5956",
"-. c #55525B",
";. c #5C545B",
":. c #545B5C",
">. c #5C5B5C",
",. c #614B57",
"<. c #625556",
"1. c #63555C",
"2. c #6A565C",
"3. c #635C5D",
"4. c #685B5C",
"5. c #5C615E",
"6. c #566057",
"7. c #64615D",
"8. c #69625E",
"9. c #4B5E64",
"0. c #555661",
"q. c #5C5B63",
"w. c #5A5A64",
"e. c #635C62",
"r. c #6A5D63",
"t. c #675764",
"y. c #725B64",
"u. c #5D6262",
"i. c #5A6766",
"p. c #5D7375",
"a. c #646264",
"s. c #6A6364",
"d. c #65646A",
"f. c #6B666C",
"g. c #6C6B6C",
"h. c #686A67",
"j. c #736D6D",
"k. c #796E6E",
"l. c #736768",
"z. c #6D736D",
"x. c #69776E",
"c. c #73726E",
"v. c #79716E",
"b. c #72796E",
"n. c #6D6B73",
"m. c #6A6976",
"M. c #746D73",
"N. c #7A6E72",
"B. c #736C7A",
"V. c #7B6E7A",
"C. c #776577",
"Z. c #6D7473",
"A. c #6E7A75",
"S. c #6D747A",
"D. c #6D7A7A",
"F. c #667872",
"G. c #747474",
"H. c #7A7474",
"J. c #747975",
"K. c #7A7A75",
"L. c #757579",
"P. c #7B757A",
"I. c #757A7B",
"U. c #7B7A7B",
"Y. c #826E74",
"T. c #876E78",
"R. c #817476",
"E. c #82747B",
"W. c #827B7C",
"Q. c #867879",
"!. c #80716F",
"~. c #728179",
"^. c #6F807A",
"/. c #747581",
"(. c #7C7483",
"). c #7C7B82",
"_. c #7C7E89",
"`. c #747C84",
"'. c #6E7785",
"]. c #827483",
"[. c #837C83",
"{. c #897D85",
"}. c #837D8B",
"|. c #8B7D8B",
" X c #8A7786",
".X c #987F8D",
"XX c #8C7E93",
"oX c #816B80",
"OX c #7A8389",
"+X c #7C8691",
"@X c #798A93",
"#X c #7C9192",
"$X c #848184",
"%X c #85838C",
"&X c #8B838C",
"*X c #838B8E",
"=X c #8C8A8C",
"-X c #8C8284",
";X c #91848D",
":X c #938A8D",
">X c #99828E",
",X c #8C8592",
"<X c #8D8B93",
"1X c #8C8C99",
"2X c #848A94",
"3X c #938593",
"4X c #9B8593",
"5X c #938B94",
"6X c #9A8B95",
"7X c #9D869B",
"8X c #948C9A",
"9X c #9A8C9B",
"0X c #958699",
"qX c #8C9195",
"wX c #8C9399",
"eX c #87979A",
"rX c #929195",
"tX c #93939C",
"yX c #9C929D",
"uX c #949B9E",
"iX c #A28B9B",
"pX c #A38596",
"aX c #A3939E",
"sX c #A1838F",
"dX c #8B9BA3",
"fX c #9A93A1",
"gX c #939BA3",
"hX c #9C9DA9",
"jX c #9797A4",
"kX c #A193A3",
"lX c #A48DA1",
"zX c #8DA9AB",
"xX c #9AA2AB",
"cX c #94ACAE",
"vX c #96A5AA",
"bX c #9CABB3",
"nX c #96AEB3",
"mX c #94B3B5",
"MX c #A3A3AF",
"NX c #A5A9B3",
"BX c #A3B0B9",
"VX c #B2B0BE",
/* pixels */
"5X|.n.X.2XgX<X&X&X5X=X&X=XP.M 1XhX2X&X&X:X;X5X,X;XP.v @XxX<X%X4X3X%X(.v +XxX5X=X;X:X&X5X;X[.- |.xX2X1X3X5X,X3X0X3X].2 +XvX*X,X4X",
"M.W._.&.gXU.L.P.P.P.M.J.U.[.q.hXI.G.).P.P.M.P.P.P.%X| xXL.P.H.P.H.L.&XS xX`.M.L.L.I.P.B.I.&Xj bXI.G.W.M.v.J.P.G.G.5XM kXI.I.G.P.",
"K.U.g.-.qXG.G.H.I.L.I.P.G.f.+.2XL.Z.P.G.H.K.G.G.K.h.S yXM.P.K.G.P.I.M.S uXL.G.K.G.I.P.L.L.C.7 wXJ.c.H.v.J.K.J.J.G.L.w 4XP.P.J.J.",
"J.g.{ 1.[.U.K.J.G.G.J.J.g.a.;.1XK.J.G.j.J.H.M.J.c.&.+.&XU.J.g.I.c.c.1.' %XP.K.H.G.J.x.K.N.a.E 9XU.G.P.K.L.Z.Z.P.J.=.D 3XW.G.z.D.",
"J.c.;.t.&XG.G.H.K.K.b.8.s.<.o.&XH.J.K.K.G.K.J.U.H.1.' %XG.~.G.K.J.G.a.' 5Xg.J.v.J.K.z.h.l.<.N 3XG.L.U.L.G.P.P.U.H.>.S &XP.U.G.J.",
"z.M.o.[ ;X[.G.G.G.c.g.f.l.[ O.5XR.H.G.G.G.J.j.g.j.;.F 1XI.H.U.P.G.G.[ u 5X[.I.j.G.z.v.8.j.*.8 1XK.c.G.K.z.K.k.l.N.;.y 2X).G.K.E.",
"&.o.r S B._.f.;.&.;.>.;.o.9 A B.E.P.B.d.q.d.e.&.+.9 9 B.3XH.f.d.$.O.w w C.}.Z.&.;.-.1.&.$.j = m.-XM.j.M.=.a.3.*.@.9 O m.|.P.f.f.",
"e.#.G F } +.+.y 6 F w.+.+.F } L [ [ ' u < F O.o.$.} L K #.H O ^ u.[ G L G | :.S - M :.q.#.M X.P K P #.A   M -.+.;.Q } #.P G < N ",
"hX1X8X5X|.5X3XM.M @XvX,X8X,X1X&XP.&X6XM.Q @XhX5X3X<X5X>X,X[.* _.xX<X,X5X5X1X3X].O +XxX0X7X,X,X5XJ.:X4X_.; XXzX5X3X8X1X&X0X}.9 B.",
"L.L.G.M.P.W.H.$Xa.gXI.G.H.H.j.a.f.E.H.&X0.jX`.G.P.Z.P.H.G.:X0 I.G.I.G.H.P.K.G.:Xf NXD.D.G.H.H.4.4.H.M.qXg hXI.Z.H.G.J.W.G.-X' j.",
"J.G.G.J.K.G.z.g.+.,XG.G.K.k.s.5XG.U.c.g.;.5XM.I.K.J.J.H.G.H.1 J.J.I.G.K.G.J.c.H.8 5XI.Z.J.J.s.rXZ.U.v.M.u kXA.P.P.J.Z.G.j.W.D h.",
"L.G.L.P.G.L.G.=.0.3XP.I.n.M.3XL.J.G.c.o.1.3XP.z.L.I.Z.P.I.e.m S.L.G.P.B.G.I.J.=.^ yXV.).L.t.,XD.A.Z.Q.<.p >XZ.H.G.L.I.L.P.a.p J.",
"G.K.G.G.G.G.G.=.0.&X[.Z.A.K.M.G.J.J.k.1.O.,XL.K.M.G.K.P.G.&. .D.Z.I.W.G.G.z.J.1.b 1XU.P.G.H.G.I.L.c.J.5.k 5XT.A.K.c.G.c.P.d.] x.",
"K.c.c.K.H.J.c.*.>.-Xj.H.b.J.U.J.G.H.k.1.| %XG.3.K.R.c.z.R.>.a ^.K.v.h.K.c.K.H.<. .=XG.J.b.K.v.H.H.U.Z.1.* fXY.5.H.K.c.H.H.=.c x.",
"&XG.h.j.e.>.*.0 m $X5XE.j.G.&.1.y.*.+.9 | }.<XL.$.4.7.>.t.0 - _.:XG.s.G.5.e.1.8   /.;XE.W.g.a.e.<.3.>.Z ; ].&XP.&.7.>.t.t.u , x.",
"n L 5 O $ $ r $ % 4 v g q X 2 r d u Q   @ $ w E ^ O   ; Z = % % e F v # 2 # v * % # C s s 2 . X k 0 W $ & : k R ^ ;   & v $ @ 4 ",
"5XrX=Xn.M %XxXqX0X,X5X5X;Xn.M +XxXtX1X8X5X5X6X;XrXn.5 _.NXqX9X5X1X4X,XS.r (.nXqX5X5X<X4X6XS.< /.bXtX0X8X5X1XrX5X:XL.3 (.cX9X<X6X",
"P.H.[.}.w.hXOXZ.P.P.U.P.$X[.e.hXL.L.L.P.P.P.P.P.H.5X' MXI.I.B.P.P.H.[.3Xn NX(.L.).G.P.T.F.tXh nXI.G.M.P.P.L.P.R.M.yXq xX).P.D.E.",
"G.M.H.n.+.8XM.G.P.G.J.G.G.f.-.,XL.J.P.G.P.G.J.G.H.H.G 8XL.Z.I.G.K.H.j.G.A 8XL.j.L.G.I.K.G.L.8 5XJ.G.P.P.P.G.G.G.R.G.Z 1XP.I.G.L.",
"L.U.K.;.@.&XP.H.G.G.J.K.Z.e.-.3XG.J.J.G.G.G.G.K.U.*.D &XL.I.G.I.J.Q.K.q.j 3XI.P.G.L.A.G.[.:.E iXG.J.K.H.G.K.J.K.R.>.0 3XP.I.H.D.",
"z.J.j.&.e.,XU.H.P.J.J.J.h.O.o.3XJ.P.G.J.J.L.L.J.x.=.+.5XG.K.c.G.z.A.b.3._ tXW.c.P.G.H.b.x.1.8 8XG.P.K.G.P.I.G.L.x.1.m yXP.H.Z.K.",
"K.J.H.;.;.5Xj.J.j.J.c.J.G.=.q.3XP.L.G.L.I.L.L.G.G.e.+.=XU.g.W.K.P.J.j.e._ 5XK.z.G.z.J.J.G.j.y 8XP.J.I.G.P.P.G.J.A.1.! ;XL.G.K.H.",
"G.G.H.O.O.&XI.J.H.K.H.K.G.@.;.2XU.G.G.P.J.J.H.H.j.@.S &XU.a.g.H.K.c.H.t.w yXG.K.K.R.H.z.T.=.~ 4XU.L.I.I.G.H.H.J.G.a.9 >XI.5.Y.z.",
"3.4.*.1 G ].=Xc.>.3.<.4.<.9 M }.&XP.G.c.3.<.3.3.2.f 0 E.<Xb.5.1.1.>.<.f 5 B.7XJ.>.=.2.5.3.e - /.;XK.G.G.3.<.3.5.r.d @ ).4XA.r.3.",
"q h q - O s * : 4 : T M g = : 4 p f e   % v b ~ r . X 2 ^ 6 f $ q B v $ # $ Z X % . T Q V 2 %   ~ g I X : 4 T ~ q # ; . ^ r e + ",
"iX>X,X_.8X7X0Xm.M OXnX1X0XkX,X8XrX>X3XB.N @XzX1XpXkX0X7X5XiXpX4X6XsX=XP.tX3X4XS.X `.nX8X,X7X1X9X;X5X0XL.% S.mX5XpXiX8X9X3XiX4XiX",
"P.P.L.f.n.I.$X[.t.vXOXH.I.B.E.I.G.P.E.&Xt.hXOXM.G.G.).B.G.G.G.I.c.Q.H.d.g.I.W.:XC cXP.G._.C.).P.E.I.b.8Xh BXI.I.G.G.L.S.P.J.G.(.",
"G.J.M.M.d.z.J.k.@.=XG.H.G.J.L.z.I.G.J.M.O.&XL.D.U.L.I.K.J.K.G.I.G.).G.n.d.I.n.U.g tXN.Z.G.J.I.Z.Z.H.U.H.8 3XP.Z.U.P.L.P.J.K.G.Z.",
"J.G.N.c.K.J.H.*.@.|.v.J.K.J.J.v.R.G.z.5.>.3XV.H.J.G.G.J.c.R.J.Z.U.G.J.J.K.R.J.3.M pXI.K.J.J.J.J.I.k.H.=.Y 6XE.G.G.G.I.K.c.v.c.~.",
"J.P.H.K.c.H.N.=.9.9XG.Z.U.g.J.T.P.U.j.O.-.%XP.W.J.G.Z.I.H.c.P.P.K.z.v.Q.h.J.J.2.T 3XJ.G.P.G.G.H.J.H.J.t.Y kXg.P.J.J.G.P.H.j.U.I.",
"M.G.i.G.1.e.-.w W /.4XL.Z.I.d.h.3.=.1.Z M }.8Xx.G.H.a.I.2.2.e.t.G.x.a.H.=.7.=.f > B.iXS.H.I.3.A.e.>.w.f % n.fX^.G.J.w.L.4.s.r.1.",
"H R Y S d y m O 4 $ s l R R E Y d u N . : $ v ~ Y E U T E t E 2 I Y T W k s ^ - X * h 0 ~ Q x Y z q ! # = : s R ~ Y U ~ E 6 M 2 ",
"6X&Xf.} +XgXqX5X6X5X1X6X,XB.N %XbX1X7X0XiX0X8X1X6X`.O (.cX1XaX.X3XqXL.# /.cXrXrX7XrX2X8X3X].O '.nXeX5X7X6X9X8X0X8XV._ m.vXgX5X6X",
"E.OX|.;.zXOXQ.L.G.W.H.J.U.W.>.NXI.Z.J.P.M.L.K.P.E.#Xg NXOXG.n.).T.I.5Xh cX].L.V.N.G.[.R.Z.7Xd BXI.G.P.G.j.J.P.U.U.&X+.fX+XS.n.E.",
"V.Z.f.@.qXZ.V.G.J.H.G.J.P.M.' *XJ.J.J.J.x.J.G.k.G.L.q iXZ.I.G.L.N.K.n.k tXI.N.K.U.b.R.k.I.U.8 1XH.H.K.K.G.J.c.H.L.[.D &X(.L.OXZ.",
"I.H.;.e.&XP.L.K.M.Z.I.U.f.e.0.0XH.H.P.G.I.P.H.H.H.2.E 4XI.j.J.^.K.A.l.b ;XZ.G.K.D.G.G.K.G.u.Q 8XV.P.J.G.D.I.G.P.G.e.[ -XU.c.J.G.",
"J.j.*.&.6XK.J.c.P.I.I.l.4.=.;.&XK.K.W.V.I.L.G.K.H.*.k qXG.J.Z.v.A.G.O.~ 5XI.A.c.Z.K.I.c.4.a.b 0XI.J.I.P.L.L.J.P.!.8._ %XJ.W.c.J.",
"G.J.1.O.,XG.Z.K.b.H.8.8.v.O.O.5Xz.z.c.K.J.J.b.J.!.r.i eXE.K.K.P.J.E.y.w iXS.T.G.J.j.k.8.j.2.f 5XJ.z.c.v.K.K.c.H.v.s.E %XK.j.H.W.",
"e.O.9 F ].1XG.5.q.a.8.5.&.0 A _.:XW.H.B.a.g.a.1.i.g o E.3XP.B.L.1.;.s 2 V.8X[.=.a.1.a.=.3.8 7 L.:XW.E.M.f.g.s.2.8.p % B.0XR.M./.",
"Q g O ; $ n b + 4 ; E M e   % % h * e #   $ g z N O 4 # B e O ; Y h ; # . C Y , X % T ! q $ o 4 h 8 q 4 . 2 0 g b 6 % = q l O : ",
"NX1X8XfX3X9X3Xm.M @XnX5X7X,XtX3XP.6X4XL.2 (.mX5X4X8X0X5X1XP.+ P.bX0X8X1X7X5X2X XO `.bX0XiX8X3X7XP.5X4XP.4 (.zXtX3XaX8X3X9XE.M n.",
"G.L.G.H.P.P.H.-Xd.gXS.G.H.W.j.a.d.L.R.<XS bX_.Z.H.Z.P.R.L.:X0 L.I.U.G.I.E.H.J.:Xg NXD.I.G.G.P.2.q.L.Y.uXS gX&XL.P.K.G.U.P.;X*.f.",
"J.G.b.H.K.J.j.z.#.5XU.b.J.l.s.<Xx.K.H.Z.j kXp.Q.K.A.J.v.Z.W.1 L.J.J.j.H.J.b.j.K.w 3XU.x.I.K.4.=XP.I.j.U.y 9XI.M.G.J.G.K.c.H.' l.",
"L.Z.G.G.J.P.G.&.0..XP.S.G.M.5XL.K.b.v.2.E .XA.v.`.G.G.I.E.a.i L.J.G.P.G.I.I.G.=.} 0XV.L.P.r.=XD.J.Z.U.2._ >X~.W.G.L.I.S.P.d._ G.",
"G.U.P.I.G.G.G.=.:.,X(.A.A.W.j.L.J.b.g.r.D qXT.J.J.N.K.K.G.=.! S.G.U.U.G.G.G.G.e.U wXP.P.P.j.W.I.J.G.J.>.I *XY.z.H.G.J.G.G.h. .d.",
"H.c.z.K.H.H.H.&.:.=Xj.K.b.v.K.U.c.R.I.;.j 8XM.5.K.K.c.c.K.7.a ^.K.N.j.~.G.K.K.1. .*XG.b.b.b.H.M.G.H.I.e.0 8X|.7.v.K.J.K.v.7.c x.",
"=XH.d.g.a.1.=.7 M U.3XN.R.G.>.;.y.>.0.g >  X;XI...>.e.q.r.0 O /.:XG.h.V.5.e.2.0   L.5XV.W.Z.e.r.2.4.0.n 2 C.<XL.:.5.=.t.1.D 9 h.",
"e F 5 O O $ r * * % q V q ; ; $ d f M 3 % - Z R ^ $ . : V = : & C M w = :   V $ % 4 v s g , ; X 8 l N , & ; q W / 6 % $ * * X 4 ",
"5X<X*XM.M 2XhXeX0X8X4X5X;Xn.N +XMXfX1X8X5X5X5X5X6XS.$ (.mX7XwX4X5X4X,XS.X ].zX6X5X6X<X4X6XS.3 /.MXfX1X8X3X3X9X5X5XU.M S.vXuX1X:X",
"P.P.[.$Xw.jXOXG.L.P.P.P.[.[.e.hXL.G.B.L.P.P.P.H.H.fXr NXP.P.D.P.P.P.W.yXr VXL.I.U.B.P.T.Z.5Xh nX).Z.B.P.V.H.U.P.P.3X+.jX%XS.G.W.",
"G.N.H.M.@.5XB.G.P.P.K.c.J.n.+.5XJ.I.J.P.K.G.J.J.V.G.k wXM.).G.G.A.H.N.P.h wXL.Z.P.L.J.K.L.I.0 8XG.K.P.K.H.J.G.J.G.E.G 5X(.I.P.H.",
"K.J.G.&.o.&XP.W.G.c.J.J.c.>.o.3XG.J.J.G.G.G.G.P.R.q.j &XG.G.U.A.A.R.W.>.g 2XG.K.G.P.A.G.W.q.` 4Xb.b.J.G.G.J.J.J.J.a.F [.L.K.P.G.",
"G.Z.c.o.1.5XL.G.P.G.J.G.g.&.o.XXG.P.J.G.L.I.G.L.A.<._ yXP.H.b.G.c.x.J.3.R 6XP.H.I.J.H.z.x.e.0 5XG.J.K.G.G.G.G.I.J.>.o.[.W.G.J.Z.",
"P.J.b.1.>.=XG.G.G.K.J.G.G.>.t.8XP.G.I.G.L.L.G.G.^.4.E >XG.J.P.K.E.J.G.3.~ 3XI.v.G.z.R.~.G.l.y 9XG.L.L.L.I.P.G.G.J.f.` &X[.z.U.J.",
"G.K.k.*.;.&XU.L.G.P.J.H.G.*.-.,XU.V.G.K.G.K.P.K.c.e.9 4XG.a.E.G.K.j.W.e.w yXG.U.U.H.K.b.T.*.Y 0XI.L.G.U.G.K.P.H.c.s.S E.W.h.c.H.",
"7.r.3.0 G }.&Xc.7.s.3.8.1.a M }.&XU.G.G.7.3.8.7.s.k 3 _.4XF.r.e.e.a.2.J + /.sXD.7.7.4.5.7.D 2 /.&XW.P.M.s.3.7.3.7.D 0 C.;XP.8.r.",
"H H C @ r L L M e N ! Q H 2 : L $.K K n t r / E H $ O A @.G H 0 j J j 9   A #.N v v / / A $ 4 N :.J K N n 5 ~ ! F 7 + n +.| H v ",
"{.|.|.P.].}.].d.N OXeX%X].,XXX|.%X XE.n.$ '.vX}.|.}.,X&X,X|.&X}.&X X Xm.,XXX,Xm.@ F.#X2X|.XX(.3X}.|.{.f.7 L.eX<XXX&X}.%X%X}.|.|.",
"E.E.P.n.L.$X=XP.w.eX+X[.U.).E.(.).|._.,XH dX+X_.[.L.OXI.P.(.).[.U. XE.f.L.P.}.-Xq cX#XQ.}.)._.V.}.).).5XA dX#X(.P.).U.).I.).$X).",
"G.K.G.g.g.G.P.j.@.1XH.V.J.G.K.I.G.G.G.P.H uXL.G.W.M.G.G.L.K.G.G.J.U.G.z.s.K.c.U.g 5XJ.H.G.Z.I.K.G.J.G.(.A 1X`.P.K.P.G.G.K.J.G.G.",
"L.K.J.J.z.j.G.3.;.7XP.J.H.b.J.b.J.K.H.r.E 4XG.K.H.H.K.G.G.H.K.G.G.G.J.c.J.P.J.4.M 6XP.~.J.G.J.c.K.J.H.s._ &XP.K.M.K.G.J.K.G.H.J.",
"P.J.z.P.G.K.H.=.9.|.G.J.U.H.Z.E.c.H.k.=.( sXG.J.G.J.c.J.G.G.K.G.K.G.J.H.j.c.K.1.T iXV.F.J.H.R.v.K.j.c.q.Q 3XQ.Z.K.K.J.I.L.M.K.U.",
"G.Z.g.G.d.s.1.u  .(.&XI.Z.G.f.M.l.a.q.S 6 }.5XZ.K.Z.i.G.g.e.d.q.G.G.h.K.s.h.d.D > (.4XZ.A.L.8.K.4.d.g.m 2 (.3XI.L.Z.g.g.f.a.a.e.",
"' { ] ] p _ F < 3 G O.' ( $.' ( l E _ * $ W #.$. .:.! ..` S ] a [ $.E o.D i D 7 X F ,.[ %.( ! $.l i ] * O L +.$. .%. . .] E E p "
};
