/* XPM */
static char *_619099886446[] = {
/* columns rows colors chars-per-pixel */
"64 64 50 1 ",
"  c #FF421D",
". c #FF431D",
"X c #FF431E",
"o c #FF451D",
"O c #FF491D",
"+ c #FF4C1C",
"@ c #FF4D1C",
"# c #FF4F1C",
"$ c #FF531B",
"% c #FF6E17",
"& c #FF6818",
"* c #FF6A18",
"= c #FF6B18",
"- c #FF7915",
"; c #FF7D14",
": c #FF6536",
"> c #FF6835",
", c #FF6C34",
"< c #FF6D34",
"1 c #FE7831",
"2 c #FE7D30",
"3 c #FF8C0F",
"4 c #FF8F0E",
"5 c #FF9F07",
"6 c #FF950B",
"7 c #FF9909",
"8 c #FF8013",
"9 c #FF8711",
"0 c #FF8A10",
"q c #FFA403",
"w c #FFA503",
"e c #FFA900",
"r c #FBBE00",
"t c #FBBF00",
"y c #FBBD02",
"u c #FBBA09",
"i c #FCAF17",
"p c #FCA81B",
"a c #FCAA1A",
"s c #FCAB1A",
"d c #FCB510",
"f c #FE832E",
"g c #FE8A2C",
"h c #FD9427",
"j c #FD9626",
"k c #FD9E23",
"l c #FD9129",
"z c #FDA021",
"x c #FDA320",
"c c #123456",
/* pixels */
"cccccccccccccccccccccccccccccccccccccccccccccccccccccccccccccccc",
"cccccccccccccccccccccccccccccccccccccccccccccccccccccccccccccccc",
"cccccccccccccccccccccccccccccccccccccccccccccccccccccccccccccccc",
"cccccccccccccccccccccccccccccccccccccccccccccccccccccccccccccccc",
"cccccccccccccccccccccccccccccccccccccccccccccccccccccccccccccccc",
"cccccccccccccccccccccccccccccccccccccccccccccccccccccccccccccccc",
"cccccccccccccccccccccccccccccccccccccccccccccccccccccccccccccccc",
"cccccccccccccccccccccccccccccccccccccccccccccccccccccccccccccccc",
"cccccccccccccccccccccccccccccccccccccccccccccccccccccccccccccccc",
"cccccccccccccccccccccccccccccccccccccccccccccccccccccccccccccccc",
"cccccccccccccccccccccccccccccccccccccccccccccccccccccccccccccccc",
"cccccccccccccccccccccccccccccccccccccccccccccccccccccccccccccccc",
"cccccccccccccccccccccccccccccccccccccccccccccccccccccccccccccccc",
"cccccccccccccccccccccccccccccccccccccccccccccccccccccccccccccccc",
"cccccccccccccccccccccccccccccccccccccccccccccccccccccccccccccccc",
"cccccccccccccccccccccccccccccccccccccccccccccccccccccccccccccccc",
"cccccccccccccccccccccccccccccccccccccccccccccccccccccccccccccccc",
"cccccccccccccccccccccccccccccccccccccccccccccccccccccccccccccccc",
"cccccccccccccccccccccccccccccccccccccccccccccccccccccccccccccccc",
"cccccccccccccccccccccccccccccccccccccccccccccccccccccccccccccccc",
"cccccccccccccccccccccccccccccccccccccccccccccccccccccccccccccccc",
"cccccccccccccccccccccccccccccccccccccccccccccccccccccccccccccccc",
"cccccccccccccccccccccccccccccccccccccccccccccccccccccccccccccccc",
"cccccccccccccccccccccccccccccccccccccccccccccccccccccccccccccccc",
"cccccccccccccccccccccccccccccccccccccccccccccccccccccccccccccccc",
"cccccccccccccccccccccccccccccccccccccccccccccccccccccccccccccccc",
"cccccccccccccccccccccccccccccccccccccccccccccccccccccccccccccccc",
"cccccccccccccccccccccccccccccccccccccccccccccccccccccccccccccccc",
"cccccccccccccccccccccccccccccccccccccccccccccccccccccccccccccccc",
"cccccccccccccccccccccccccccccccccccccccccccccccccccccccccccccccc",
"cccccccccccccccccccccccccccccccccccccccccccccccccccccccccccccccc",
"cccccccccccccccccccccccccccccccccccccccccccccccccccccccccccccccc",
"cccccccccccccccccccccccccccccccccXXccccccccccccccccccccccccccccc",
"ccccccccccccccccccccccccccccccc::XXccccccccccccccccccccccccccccc",
"cccccccccccccccccccccccccccccc:::Xcccccccccccccccccccccccccccccc",
"ccccccccccccccccccccccccccccc::::Xcccccccccccccccccccccccccccccc",
"cccccccccccccccccccccccccccc:::::Xcccccccccccccccccccccccccccccc",
"ccccccccccccccccccccccccccc::::::Xcccccccccccccccccccccccccccccc",
"cccccccccccccccccccccccccc:::::::Xcccccccccccccccccccccccccccccc",
"cccccccccccccccccccccccccc::::::: cccccccccccccccccccccccccccccc",
"cccccccccccccccccccccccccc:::::::  ccccccccccccccccccccccccccccc",
"ccccccccccccccccccccccccc:::::::: XccccccXcccccccccccccccccccccc",
"ccccccccccccccccccccccccc:::::::: XccccccXXccccccccccccccccccccc",
"ccccccccccccccccccccccccc:::::::: XXXccXXXXccccccccccccccccccccc",
"ccccccccccccccccccccccccc::::::::       X  ccccccccccccccccccccc",
"cccccccccccccccccccccccc:::::::::           cccccccccccccccccccc",
"cccccccccccccccccccccccc:::::::::           cccccccccccccccccccc",
"cccccccccccccccccccccccc:::::::::          Xcccccccccccccccccccc",
"cccccccccccccccccccc:ccc:::::::::         XXcccccccccccccccccccc",
"cccccccccccccccccccc::cc:::::::<j;         Xcccccccccccccccccccc",
"cccccccccccccccccccc:::c::::::gut*        Xccccccccccccccccccccc",
"cccccccccccccccccccc:::::::::lttto        XcXXcccccccccccccccccc",
"cccccccccccccccccccc::::::::2tttt$XX          cccccccccccccccccc",
"cccccccccccccccccccc::::::::stttt- XXX        cccccccccccccccccc",
"cccccccccccccccccccc:::::::1tttttq&+3%      XXcccccccccccccccccc",
"ccccccccccccccccccccc::::::jttttteeeeq@     Xccccccccccccccccccc",
"ccccccccccccccccccccc::::::zttttteeeee;X     ccccccccccccccccccc",
"cccccccccccccccccccccc:::::sttttteeeee3X    cccccccccccccccccccc",
"cccccccccccccccccccccc:::::sttttteeeee6   XXcccccccccccccccccccc",
"ccccccccccccccccccccccc::::zttttteeeeq3  XXccccccccccccccccccccc",
"cccccccccccccccccccccccc:::fttttteeeee=XXXcccccccccccccccccccccc",
"ccccccccccccccccccccccccc:::stttteeee6XXXccccccccccccccccccccccc",
"ccccccccccccccccccccccccccc:<ittteee7@ ccccccccccccccccccccccccc",
"ccccccccccccccccccccccccccccc:kdte59Occccccccccccccccccccccccccc"
};
