/* XPM */
static char *_619098006919[] = {
/* columns rows colors chars-per-pixel */
"64 64 6 1 ",
"  c #000000",
". c #B3090B",
"X c #E10C0E",
"o c #F70400",
"O c white",
"+ c #123456",
/* pixels */
"++++++++++++++++++++++++++++++++++++++++++++++++++++++++++++++++",
"++++++++++++++++++++++++++++++++++++++++++++++++++++++++++++++++",
"++++++++++++++++++++++++++++++++++++++++++++++++++++++++++++++++",
"++++++++++++++++++++++++++++++++++++++++++++++++++++++++++++++++",
"++++++++++++++++++++++++++++++++++++++++++++++++++++++++++++++++",
"++++++++++++++++++++++++++++++++++++++++++++++++++++++++++++++++",
"++++++++++++++++++++++++++++++++++++++++++++++++++++++++++++++++",
"++++++++++++++++++++++++++++++++++++++++++++++++++++++++++++++++",
"++++++++++++++++++++++++++++++++++++++++++++++++++++++++++++++++",
"++++++++++++++++++++++++++++++++++++++++++++++++++++++++++++++++",
"++++++++++++++++++++++++++++++++++++++++++++++++++++++++++++++++",
"++++++++++++++++++++++++++++++++++++++++++++++++++++++++++++++++",
"++++++++++++++++++++++++++++++++++++++++++++++++++++++++++++++++",
"++++++++++++++++++++++++++++++++++++++++++++++++++++++++++++++++",
"++++++++++++++++++++++++++++++++++++++++++++++++++++++++++++++++",
"++++++++++++++++++++++++++++++++++++++++++++++++++++++++++++++++",
"++++++++++++++++++++++++++++++++++++++++++++++++++++++++++++++++",
"++++++++++++++++++++++++++++++++++++++++++++++++++++++++++++++++",
"++++++++++++++++++++++++++++++++++++++++++++++++++++++++++++++++",
"++++++++++++++++++++++++++++++++++++++++++++++++++++++++++++++++",
"++++++++++++++++++++++++++++++++++++++++++++++++++++++++++++++++",
"++++++++++++++++++++++++++++++++++++++++++++++++++++++++++++++++",
"++++++++++++++++++++++++++++++++++++++++++++++++++++++++++++++++",
"++++++++++++++++++++++++++++++++++++++++++++++++++++++++++++++++",
"++++++++++++++++++++++++++++++++++++++++++++++++++++++++++++++++",
"++++++++++++++++++++++++++++++++++++++++++++++++++++++++++++++++",
"++++++++++++++++++++++++++++++++++++++++++++++++++++++++++++++++",
"++++++++++++++++++++++++++++++++++++++++++++++++++++++++++++++++",
"++++++++++++++++++++++++++++++++++++++++++++++++++++++++++++++++",
"++++++++++++++++++++++++++++++++++++++++++++++++++++++++++++++++",
"++++++++++++++++++++++++++++++++++++++++++++++++++++++++++++++++",
"++++++++++++++++++++++++++++++++++++++++++++++++++++++++++++++++",
"++++++++++++++++++++++++++++++++++++++++++++++++++++++++++++++++",
"++++++++++++++++++++++++++++++++++++++++++++++++++++++++++++++++",
"++++++++++++++++++++++      ++++++++      ++++++++++++++++++++++",
"++++++++++++++++++++++      ++++++++      ++++++++++++++++++++++",
"++++++++++++++++++++  oooooo  ++++  ooooXX  ++++++++++++++++++++",
"++++++++++++++++++++  oooooo  ++++  ooooXX  ++++++++++++++++++++",
"++++++++++++++++++  ooooOOoooo    ooooooooXX  ++++++++++++++++++",
"++++++++++++++++++  ooooOOoooo    ooooooooXX  ++++++++++++++++++",
"++++++++++++++++  ooooOOOOooooooooooooooooXX..  ++++++++++++++++",
"++++++++++++++++  ooooOOOOooooooooooooooooXX..  ++++++++++++++++",
"++++++++++++++++  ooOOOOooooooooooooooooooXX..  ++++++++++++++++",
"++++++++++++++++  ooOOOOooooooooooooooooooXX..  ++++++++++++++++",
"++++++++++++++++  ooooooooooooooooooooooooXX..  ++++++++++++++++",
"++++++++++++++++  ooooooooooooooooooooooooXX..  ++++++++++++++++",
"++++++++++++++++  ooooooooooooooooooooooooXX..  ++++++++++++++++",
"++++++++++++++++  ooooooooooooooooooooooooXX..  ++++++++++++++++",
"++++++++++++++++++  ooooooooooooooooooooXX..  ++++++++++++++++++",
"++++++++++++++++++  ooooooooooooooooooooXX..  ++++++++++++++++++",
"++++++++++++++++++  ooooooooooooooooooooXX..  ++++++++++++++++++",
"++++++++++++++++++  ooooooooooooooooooooXX..  ++++++++++++++++++",
"++++++++++++++++++++  ooooooooooooooooXX..  ++++++++++++++++++++",
"++++++++++++++++++++  ooooooooooooooooXX..  ++++++++++++++++++++",
"++++++++++++++++++++++  ooooooooooooXX..  ++++++++++++++++++++++",
"++++++++++++++++++++++  ooooooooooooXX..  ++++++++++++++++++++++",
"++++++++++++++++++++++++  ooooooooXX..  ++++++++++++++++++++++++",
"++++++++++++++++++++++++  ooooooooXX..  ++++++++++++++++++++++++",
"++++++++++++++++++++++++++  ooooXX..  ++++++++++++++++++++++++++",
"++++++++++++++++++++++++++  ooooXX..  ++++++++++++++++++++++++++",
"++++++++++++++++++++++++++++  XX..  ++++++++++++++++++++++++++++",
"++++++++++++++++++++++++++++  XX..  ++++++++++++++++++++++++++++",
"++++++++++++++++++++++++++++++    ++++++++++++++++++++++++++++++",
"++++++++++++++++++++++++++++++    ++++++++++++++++++++++++++++++"
};
