/* XPM */
static char *d3551206e65c4ff59c74be52b8cc47feFWCXfxcGe8JGyS1o[] = {
/* columns rows colors chars-per-pixel */
"64 64 3 1 ",
"  c #123456",
". c #262B44",
"X c #C0CBDC",
/* pixels */
"                                                                ",
"                                    XXXXXXXX                    ",
"                            XXXXXXXXXXXXXXXXXXXXX               ",
"                          XXXXXXXXXXXXXXXXXXXXXXXXX             ",
"                       XXXXXXXXXXXXXXXXXXXXXXXXXXXXXX           ",
"                      XXXXXXXXXXXXXXXXXXXXXXXXXXXXXXXXX         ",
"                    XXXXXXXX....XXXXXXXXXXX.......XXXXXX        ",
"                   XXXXXXXX..XX...XXXXXXXX..XXXX...XXXXXXX      ",
"                  XXXXXXXX..XXXXX.XXXXXXX..X..XX..XXXXXXXXX     ",
"                 XXXXXXXXX..XX..XX.XXXXX...XXX....XXXXXXXXXX    ",
"                XXXXXXXXXXX...XXX..XXXXXX.......XXXXXXXXXXXX    ",
"                XXXXXXXXXXXXX..X..XXXXXXXXX...XXXXXXXXXXXXXXX   ",
"               XXXXXXXXXXXXXXX...XXXXXXXXXXXXXXXXXXXXXXXXXXXX   ",
"              XXXXXXXXXXXXXXXXXXXXXXXXXXXXXXXXXXXXXXXXXXXXXXX   ",
"              XXXXXXXXXXXXXXXXXXXXXXXX...XXXXXXX....XXXXXXXX    ",
"             XXXXXXXX..XXXXXXXXXXXXXX.XX..XXXXX..XX..XXXXXXX    ",
"             XXXXXX.....XXXXXXXXXXXXX.XXX.XXXX..X.X..XXXXXXX    ",
"             XXXXX.......XXXXXXXXXXX..X.X..XXX..XX...XXXXXX     ",
"            XXXXX.........XXXX....XX.XXXX..XXXX...XXXXXXX       ",
"            XXXXX.................XX......XXXXXXXXXXXXXX        ",
"            XXXXX.................XXXXXX.XXXXXXXXXXXXXX         ",
"            XXXXX.................XXXXXXXXXXXXXXXXXX            ",
"            XXXXXX...............XXXX       XXXXX               ",
"            XXXXXX...............XXX                            ",
"             XXXXX..............XX                              ",
"             XXXXX.............XXX                              ",
"             XXXXX............XXXX                              ",
"              XXX..........XXXXXXX                              ",
"              XXX.........XXXXXXXX                              ",
"              XXX........XXXXXXXXXX                             ",
"              XXX........XXXXXXXXXXX                            ",
"              XXX........XXXXXXXXXXXX                           ",
"              XXXX.......XXXXXXXXXXXXXX                         ",
"              XXXXXX....XXXXXXXXXXXXXXXX                        ",
"            XXXXXXXXXXXXXXXXXXXXXXXXXXXXX                       ",
"           XXXXXXXXXXXXXXXXXXXXXXXXXXXXXXX                      ",
"         XXXXXXXXXXXXXXXXXXXXXXXXXXXXXXXXXXX                    ",
"         XXXXXXXXXXXXXXXXXXXXXXXXXXXXXXXXXXXX                   ",
"        XXXXXXXXXXXXXXXXXXXXXXXXXXXXXXXXXXXXXX                  ",
"       XXXXXXXXXXXXXXXXXXXXXXXXXXXXXXXXXXXXXXXX                 ",
"      XXXXXXXXXXXXXXXXXXXXXXXXXXXXXXXXXXXXXXXXX                 ",
"      XXXXXXXXXXXXXXXXXXXXXXXXXXXXXXXXXXXXXXXXX                 ",
"      XXXXXXXXXXXXXXXXXXXXXXXXXXXXXXXXXXXXXXXX                  ",
"      XXXXXXXXXXXXXXXXXXXXXXXXXXXXXXXXXXXXXXX                   ",
"       XXXXXXXXXXXXXXXXXXXXXXXXXXXXXXXXXXXXX                    ",
"       XXXXXXXXXXXXXXXXXXXXXXXXXXXXXXXXXXXXXX                   ",
"        XXXXXXXXXXXXXXXXXXXXXXXXXXXXXXXXXXXXX                   ",
"        XXXXXXXXXXXXXXXXXXXXXXXXXXXXXXXXXXXXXX                  ",
"         XXXXXXXXXXXXXXXXXXXXXXXXXXXXXXXXXXXXXX                 ",
"         XXXXXXXXXXXXXXXXXXXXXXXXXXXXXXXXXXXXXXX                ",
"          XXXXXXXXXXXXXXXXXXXXXXXXXXXXXXXXXXXXXXX               ",
"          XXXXXXXXXXXXXXXXXXXXXXXXXXXXXXXXXXXXXXX               ",
"           XXXXXXXXXXXXXXXXXXXXXXXXXXXXXXX  XXXX                ",
"            XXXXXXXXXXXXXXXXXXXXXXXXXXXXX                       ",
"             XXXXXXXXXXXXXXXXXX XXXXXXXX                        ",
"             XXXXXXXXXXXXXXXX      X                            ",
"               XXXX   XXXXXX                                    ",
"                                                                ",
"                                                                ",
"                                                                ",
"                                                                ",
"                                                                ",
"                                                                ",
"                                                                "
};