/* XPM */
static char *_620113146974[] = {
/* columns rows colors chars-per-pixel */
"34 34 5 1 ",
"  c black",
". c #FF3333",
"X c #898989",
"o c white",
"O c #123456",
/* pixels */
"OOOOOOOOOOOOOOOOOOOOOOOOOOOOOOOOOO",
"OOOOOOOOOOOOOOOOOOOOOOOOOOOOOOOOOO",
"OOOOOOOOOOOO            OOOOOOOOOO",
"OOOOOOOOOOOO            OOOOOOOOOO",
"OOOOOOOO    oooooooooooo    OOOOOO",
"OOOOOOOO    oooooooooooo    OOOOOO",
"OOOOOO  XXXXoooooooooooooooo  OOOO",
"OOOOOO  XXXXoooooooooooooooo  OOOO",
"OOOO  XXoooooooooooooooooooooo  OO",
"OOOO  XXoooooooooooooooooooooo  OO",
"OOOO  XXoooooooooooooo  oo  oo  OO",
"OOOO  XXoooooooooooooo  oo  oo  OO",
"OO  XXoo    oooooooooo  oo  oooo  ",
"OO  XXoo    oooooooooo  oo  oooo  ",
"OO  XX  oooo  oooooooooooooooooo  ",
"OO  XX  oooo  oooooooooooooooooo  ",
"OO  XX  oooooooooooo..oo..oo..oo  ",
"OO  XX  oooooooooooo..oo..oo..oo  ",
"  XXoooo  oooooooooo..........oo  ",
"  XXoooo  oooooooooo..........oo  ",
"  XXoooooooooooooooo..........oo  ",
"  XXoooooooooooooooo..........oo  ",
"  XXXXoooooooooooo..........oo  OO",
"  XXXXoooooooooooo..........oo  OO",
"OO  XXXXXXXXoooooo..oo..oo..oo  OO",
"OO  XXXXXXXXoooooo..oo..oo..oo  OO",
"OOOO      XXXXXXoooooooooooo  OOOO",
"OOOO      XXXXXXoooooooooooo  OOOO",
"OOOOOOOOOO    XXXXXXXX      OOOOOO",
"OOOOOOOOOO    XXXXXXXX      OOOOOO",
"OOOOOOOOOOOOOO        OOOOOOOOOOOO",
"OOOOOOOOOOOOOO        OOOOOOOOOOOO",
"OOOOOOOOOOOOOOOOOOOOOOOOOOOOOOOOOO",
"OOOOOOOOOOOOOOOOOOOOOOOOOOOOOOOOOO"
};
