/* XPM */
static char *_619080335417[] = {
/* columns rows colors chars-per-pixel */
"64 64 5 1 ",
"  c #000",
". c #B3090B",
"X c #F70400",
"o c white",
"O c #123456",
/* pixels */
"OOOOOOOOO                 OOOOOOOOOOOO                 OOOOOOOOO",
"OOOOOOOOO                 OOOOOOOOOOOO                 OOOOOOOOO",
"OOOOOOOOO                 OOOOOOOOOOOO                 OOOOOOOOO",
"OOOOOOOOO                 OOOOOOOOOOOO                 OOOOOOOOO",
"OOOO     XXXXXXXXXXXXXXXXX    OOOO    XXXXXXXXXXXXX....     OOOO",
"OOOO     XXXXXXXXXXXXXXXXX    OOOO    XXXXXXXXXXXXX....     OOOO",
"OOOO     XXXXXXXXXXXXXXXXX    OOOO    XXXXXXXXXXXXX....     OOOO",
"OOOO     XXXXXXXXXXXXXXXXX    OOOO    XXXXXXXXXXXXX....     OOOO",
"OOOO     XXXXXXXXXXXXXXXXX    OOOO    XXXXXXXXXXXXX....     OOOO",
"    XXXXXXXXXooooooooXXXXXXXXX    XXXXXXXXXXXXXXXXXXXXX.....    ",
"    XXXXXXXXXooooooooXXXXXXXXX    XXXXXXXXXXXXXXXXXXXXX.....    ",
"    XXXXXXXXXooooooooXXXXXXXXX    XXXXXXXXXXXXXXXXXXXXX.....    ",
"    XXXXXXXXXooooooooXXXXXXXXX    XXXXXXXXXXXXXXXXXXXXX.....    ",
"    XXXXXooooooooXXXXXXXXXXXXXXXXXXXXXXXXXXXXXXXXXXXXXX.....    ",
"    XXXXXooooooooXXXXXXXXXXXXXXXXXXXXXXXXXXXXXXXXXXXXXX.....    ",
"    XXXXXooooooooXXXXXXXXXXXXXXXXXXXXXXXXXXXXXXXXXXXXXX.....    ",
"    XXXXXooooooooXXXXXXXXXXXXXXXXXXXXXXXXXXXXXXXXXXXXXX.....    ",
"    XXXXXooooXXXXXXXXXXXXXXXXXXXXXXXXXXXXXXXXXXXXXXXXXX.....    ",
"    XXXXXooooXXXXXXXXXXXXXXXXXXXXXXXXXXXXXXXXXXXXXXXXXX.....    ",
"    XXXXXooooXXXXXXXXXXXXXXXXXXXXXXXXXXXXXXXXXXXXXXXXXX.....    ",
"    XXXXXooooXXXXXXXXXXXXXXXXXXXXXXXXXXXXXXXXXXXXXXXXXX.....    ",
"    XXXXXXXXXXXXXXXXXXXXXXXXXXXXXXXXXXXXXXXXXXXXXXXXXXX.....    ",
"    XXXXXXXXXXXXXXXXXXXXXXXXXXXXXXXXXXXXXXXXXXXXXXXXXXX.....    ",
"    XXXXXXXXXXXXXXXXXXXXXXXXXXXXXXXXXXXXXXXXXXXXXXXXXXX.....    ",
"    XXXXXXXXXXXXXXXXXXXXXXXXXXXXXXXXXXXXXXXXXXXXXXXXXXX.....    ",
"    XXXXXXXXXXXXXXXXXXXXXXXXXXXXXXXXXXXXXXXXXXXXXXXXXXX.....    ",
"    XXXXXXXXXXXXXXXXXXXXXXXXXXXXXXXXXXXXXXXXXXXXXXXXXXX.....    ",
"    XXXXXXXXXXXXXXXXXXXXXXXXXXXXXXXXXXXXXXXXXXXXXXXXXXX.....    ",
"    XXXXXXXXXXXXXXXXXXXXXXXXXXXXXXXXXXXXXXXXXXXXXXXXXXX.....    ",
"    XXXXXXXXXXXXXXXXXXXXXXXXXXXXXXXXXXXXXXXXXXXXXXXXXXX.....    ",
"OOOO     XXXXXXXXXXXXXXXXXXXXXXXXXXXXXXXXXXXXXXXXXX....     OOOO",
"OOOO     XXXXXXXXXXXXXXXXXXXXXXXXXXXXXXXXXXXXXXXXXX....     OOOO",
"OOOO     XXXXXXXXXXXXXXXXXXXXXXXXXXXXXXXXXXXXXXXXXX....     OOOO",
"OOOO     XXXXXXXXXXXXXXXXXXXXXXXXXXXXXXXXXXXXXXXXXX....     OOOO",
"OOOOOOOOO    XXXXXXXXXXXXXXXXXXXXXXXXXXXXXXXXXX....    OOOOOOOOO",
"OOOOOOOOO    XXXXXXXXXXXXXXXXXXXXXXXXXXXXXXXXXX....    OOOOOOOOO",
"OOOOOOOOO    XXXXXXXXXXXXXXXXXXXXXXXXXXXXXXXXXX....    OOOOOOOOO",
"OOOOOOOOO    XXXXXXXXXXXXXXXXXXXXXXXXXXXXXXXXXX....    OOOOOOOOO",
"OOOOOOOOOOOOO    XXXXXXXXXXXXXXXXXXXXXXXXXX....    OOOOOOOOOOOOO",
"OOOOOOOOOOOOO    XXXXXXXXXXXXXXXXXXXXXXXXXX....    OOOOOOOOOOOOO",
"OOOOOOOOOOOOO    XXXXXXXXXXXXXXXXXXXXXXXXXX....    OOOOOOOOOOOOO",
"OOOOOOOOOOOOO    XXXXXXXXXXXXXXXXXXXXXXXXXX....    OOOOOOOOOOOOO",
"OOOOOOOOOOOOO    XXXXXXXXXXXXXXXXXXXXXXXXXX....    OOOOOOOOOOOOO",
"OOOOOOOOOOOOOOOOO    XXXXXXXXXXXXXXXXX.....    OOOOOOOOOOOOOOOOO",
"OOOOOOOOOOOOOOOOO    XXXXXXXXXXXXXXXXX.....    OOOOOOOOOOOOOOOOO",
"OOOOOOOOOOOOOOOOO    XXXXXXXXXXXXXXXXX.....    OOOOOOOOOOOOOOOOO",
"OOOOOOOOOOOOOOOOO    XXXXXXXXXXXXXXXXX.....    OOOOOOOOOOOOOOOOO",
"OOOOOOOOOOOOOOOOOOOOO     XXXXXXXX....     OOOOOOOOOOOOOOOOOOOOO",
"OOOOOOOOOOOOOOOOOOOOO     XXXXXXXX....     OOOOOOOOOOOOOOOOOOOOO",
"OOOOOOOOOOOOOOOOOOOOO     XXXXXXXX....     OOOOOOOOOOOOOOOOOOOOO",
"OOOOOOOOOOOOOOOOOOOOO     XXXXXXXX....     OOOOOOOOOOOOOOOOOOOOO",
"OOOOOOOOOOOOOOOOOOOOOOOOOO    ....    OOOOOOOOOOOOOOOOOOOOOOOOOO",
"OOOOOOOOOOOOOOOOOOOOOOOOOO    ....    OOOOOOOOOOOOOOOOOOOOOOOOOO",
"OOOOOOOOOOOOOOOOOOOOOOOOOO    ....    OOOOOOOOOOOOOOOOOOOOOOOOOO",
"OOOOOOOOOOOOOOOOOOOOOOOOOO    ....    OOOOOOOOOOOOOOOOOOOOOOOOOO",
"OOOOOOOOOOOOOOOOOOOOOOOOOOOOOO    OOOOOOOOOOOOOOOOOOOOOOOOOOOOOO",
"OOOOOOOOOOOOOOOOOOOOOOOOOOOOOO    OOOOOOOOOOOOOOOOOOOOOOOOOOOOOO",
"OOOOOOOOOOOOOOOOOOOOOOOOOOOOOO    OOOOOOOOOOOOOOOOOOOOOOOOOOOOOO",
"OOOOOOOOOOOOOOOOOOOOOOOOOOOOOO    OOOOOOOOOOOOOOOOOOOOOOOOOOOOOO",
"OOOOOOOOOOOOOOOOOOOOOOOOOOOOOO    OOOOOOOOOOOOOOOOOOOOOOOOOOOOOO",
"OOOOOOOOOOOOOOOOOOOOOOOOOOOOOOOOOOOOOOOOOOOOOOOOOOOOOOOOOOOOOOOO",
"OOOOOOOOOOOOOOOOOOOOOOOOOOOOOOOOOOOOOOOOOOOOOOOOOOOOOOOOOOOOOOOO",
"OOOOOOOOOOOOOOOOOOOOOOOOOOOOOOOOOOOOOOOOOOOOOOOOOOOOOOOOOOOOOOOO",
"OOOOOOOOOOOOOOOOOOOOOOOOOOOOOOOOOOOOOOOOOOOOOOOOOOOOOOOOOOOOOOOO"
};
