/* XPM */
static char *_d930a77a9ed4ffae31ea4efcf1635e8WZY8Kn7kGMoB3Isq[] = {
/* columns rows colors chars-per-pixel */
"64 64 17 1 ",
"  c #123456",
". c #261F1E",
"X c #093A1C",
"o c #12351C",
"O c #0F3020",
"+ c #113524",
"@ c #133B28",
"# c #163C29",
"$ c #2F2625",
"% c #3B2D2C",
"& c #433535",
"* c #0B4B24",
"= c #1F452A",
"- c #1B4C29",
"; c #194932",
": c #1B5137",
"> c #2A5B43",
/* pixels */
"                                                                ",
"                                                                ",
"                                                                ",
"                                                                ",
"                                                                ",
"                                                                ",
"                                                                ",
"                                                                ",
"                                                                ",
"                                                                ",
"                              >>>>>>                            ",
"                            >>#####>>>>  ooooooo                ",
"                          >>###===#####>>OOOOOoooo              ",
"                       >>>##==========##>>OO-OOOooo             ",
"                   ++++>###===>>>=====>>#>>OO-OOOOooo           ",
"                 ++++>>#=======##>===>#=##>>OOO>>OO++o          ",
"                +++o>##==>=======#==>#====#>>O>ooO+++++         ",
"               ++oo>>#===#>>===============#>Oo++++>>>>>>>      ",
"              ++ooo>>=====##>===========>==#>OO+>>>>=====>>     ",
"              +ooOO>#===================#>=##OO>>==========>>   ",
"          >>>>>OOOO>===>======>>===>=====#==XOO::>;===>>====>>  ",
"        >>>;;;>>OO>>==>#=====>#====#>>&&$==XOOO:>;====;;>====>> ",
"       >>;;;===>OO>#=>#=====>#======##=&&$$oOOO>;====&&=======> ",
"      >>;;===>==OOXX============>======%&&$$$OO====&&&&===>>===>",
"     >>;;===>;;==OXX====>==&===#>=======%&&&$O====&&%%%==>;=====",
"    >>;;===>;;===OOXX===#>=$&&==#>====>>=%%&&$$$$$%%%===>;===>==",
"    >;;====>;===>;OOXX===#>=$&===#>==>#===%%%%%$%%%%========>;==",
"   >;;==========>;OOXXX=====$$======>#====%%%%%%%%%======&&=;===",
"  >;;=>>>======>;;:OOXX=====$$======#====$%%%%%%%%%$$$===$&=====",
"  >;==;;>>==&$$$:::OOOXX===&$$===>======$$%%%%%%%==%%$$$$%=====@",
" @;;===;;;==&&&$$::;;OXXX=&&$===>#=====X$$%%%$$===============@ ",
" @;==========%&&&$::;;OXXX&%$==>#=====XX$$%%$$===>>======>>==@  ",
" @@=>>===;====%%&&&$$$OOO&&$$***====XXXOO$$$$O@@=;;>==>>=;;>@@  ",
"  @@;>>=;=======%%&&$$$$O&%$XXXX*=XXXOOOOO$-O;X@@@:;=>;====@@   ",
"   @=;;===>==>>===%&&$$$>%%$OOXXXXXOOOOOOOo--::XX-@==;=====@    ",
"   @=====>;==;;>===%%%$$%%$$OOOO-OOOO--OO>>>>>>:XX-@@@@@@@@     ",
"   @@;==>;====;;;===%%%%%$$OOOOOO-OO--oO>>>>>>>::XXX-X-  %$     ",
"    @:;=====>;=====;%%%%$$OOO-OOOOO--o>>>>====>>>>X-X  %%$$     ",
"     @@====;;=====;:@%%%$$$OOo--OOO-o>>>========>>>X %%$$$      ",
"      @@@=====;>>==@@%%%$$$$OOooOOOO>>===>===>>===>%%%$$        ",
"         @====;;;@@@+%%%%$$$$$OOOOOO>===>#==>#======$$$         ",
"         @@@@@:@@@+++++%%%$$$$OOOO->>===#===#===>====#          ",
"             @@@ O++-+++%%%$$$$$-OO>===========#>>==##          ",
"                 O+-O+++%%%%$$$%%-O>============##==#           ",
"                 OO++++++%%%%%%%%OO>==>>===>>======##           ",
"                  OO++--++%%%%%%%%O>===#>=>##==>===#            ",
"                   OO++OO+%%%%%%%%%%======>#===#>=##            ",
"                    OO+++++%%%%%%%%%$=>=====>>==###             ",
"                     OOOO++&%%%%%%%%$$#>>===>#===#              ",
"                        OO+&%%%%%%%$$$ ##==>#==##               ",
"                           &%%%%%%%$$   ##====##                ",
"                           &%%%%%%$$     ######                 ",
"                          &&%%%%%%$$                            ",
"                          &%%%%%%$$                             ",
"                          &%%%%%%$$                             ",
"                         &&%%%%%%$$                             ",
"                         &%%%%%%%$$                             ",
"                         &%%%%%%%%$                             ",
"                         &%%%%%%%%$$                            ",
"                         &%%%%%%%%%$                            ",
"                        &%%%%%%%%%%$                            ",
"                        &%%%%%%%%%%%$                           ",
"                       .&%$$$$$$$$$$$.                          ",
"                      .................                         "
};
